# xmcd CD database file
#
# Track frame offsets:
#	150
#	14475
#	28350
#	41025
#	52800
#	64800
#	80946
#	95850
#	112965
#	129750
#	143345
#
# Disc length: 2168 seconds
#
# Revision: 0
# Processed by: cddbd v1.5.2PL0 Copyright (c) Steve Scherf et al.
# Submitted via: CDex 1.70beta2
#
DISCID=9408760b
DTITLE=Melanie Switzer - Melanie Switzer
DYEAR=1900
DGENRE=Country
TTITLE0=Dance Away
TTITLE1=Healing Wind
TTITLE2=But I Do
TTITLE3=Ask Me To Dance
TTITLE4=Gettin' Over You, Getting Over Me
TTITLE5=He's Still Around
TTITLE6=What Is Me
TTITLE7=Little Did You Know
TTITLE8=Truly Blue
TTITLE9=Lasso Your Love
TTITLE10=Angel Coming Home
EXTD=
EXTT0=
EXTT1=
EXTT2=
EXTT3=
EXTT4=
EXTT5=
EXTT6=
EXTT7=
EXTT8=
EXTT9=
EXTT10=
PLAYORDER=
